{
  "source": "C:\\Users\\Peter\\Desktop\\stuff\\MIUN\\quantitative_research\\video_compression\\videos\\BVI-HD\\BVI-HD_CDVL_videos\\ORIG\\Fountain_1920x1080_50fps.mp4",
  "output": "C:\\Users\\Peter\\Desktop\\stuff\\MIUN\\quantitative_research\\video_compression\\compressed_videos\\BVI-HD\\h264\\3\\Fountain_1920x1080_50fps_h264.mp4",
  "codec": "h264",
  "ok": "Input #0, mov,mp4,m4a,3gp,3g2,mj2, from 'C:\\Users\\Peter\\Desktop\\stuff\\MIUN\\quantitative_research\\video_compression\\videos\\BVI-HD\\BVI-HD_CDVL_videos\\ORIG\\Fountain_1920x1080_50fps.mp4':\n  Metadata:\n    major_brand     : isom\n    minor_version   : 512\n    compatible_brands: isomiso2avc1mp41\n    encoder         : Lavf54.28.101\n  Duration: 00:00:05.00, start: 0.000000, bitrate: 603457 kb/s\n  Stream #0:0[0x1](und): Video: h264 (High 4:4:4 Predictive) (avc1 / 0x31637661), yuv420p(progressive), 1920x1080, 603453 kb/s, 50 fps, 50 tbr, 50 tbn (default)\n    Metadata:\n      handler_name    : VideoHandler\n      vendor_id       : [0][0][0][0]\n[out#0/mp4 @ 000001fcc4e29bc0] Codec AVOption b:a (set bitrate (in bits/s)) has not been used for any stream. The most likely reason is either wrong type (e.g. a video option with no video streams) or that it is a private option of some decoder which was not actually used for any stream.\nStream mapping:\n  Stream #0:0 -> #0:0 (h264 (native) -> h264 (libx264))\nPress [q] to stop, [?] for help\n[libx264 @ 000001fcc69b5980] using cpu capabilities: MMX2 SSE2Fast SSSE3 SSE4.2 AVX FMA3 BMI2 AVX2\n[libx264 @ 000001fcc69b5980] profile High, level 5.0, 4:2:0, 8-bit\n[libx264 @ 000001fcc69b5980] 264 - core 165 r3222 b35605a - H.264/MPEG-4 AVC codec - Copyleft 2003-2025 - http://www.videolan.org/x264.html - options: cabac=1 ref=5 deblock=1:0:0 analyse=0x3:0x113 me=hex subme=8 psy=1 psy_rd=1.00:0.00 mixed_ref=1 me_range=16 chroma_me=1 trellis=2 8x8dct=1 cqm=0 deadzone=21,11 fast_pskip=1 chroma_qp_offset=-2 threads=18 lookahead_threads=3 sliced_threads=0 nr=0 decimate=1 interlaced=0 bluray_compat=0 constrained_intra=0 bframes=3 b_pyramid=2 b_adapt=1 b_bias=0 direct=3 weightb=1 open_gop=0 weightp=2 keyint=250 keyint_min=25 scenecut=40 intra_refresh=0 rc_lookahead=50 rc=cbr mbtree=1 bitrate=3000 ratetol=1.0 qcomp=0.60 qpmin=0 qpmax=69 qpstep=4 vbv_maxrate=3000 vbv_bufsize=3000 nal_hrd=none filler=0 ip_ratio=1.40 aq=1:1.00\nOutput #0, mp4, to 'C:\\Users\\Peter\\Desktop\\stuff\\MIUN\\quantitative_research\\video_compression\\compressed_videos\\BVI-HD\\h264\\3\\Fountain_1920x1080_50fps_h264.mp4':\n  Metadata:\n    major_brand     : isom\n    minor_version   : 512\n    compatible_brands: isomiso2avc1mp41\n    encoder         : Lavf62.3.100\n  Stream #0:0(und): Video: h264 (avc1 / 0x31637661), yuv420p(tv, progressive), 1920x1080, q=2-31, 3000 kb/s, 50 fps, 12800 tbn (default)\n    Metadata:\n      encoder         : Lavc62.11.100 libx264\n      handler_name    : VideoHandler\n      vendor_id       : [0][0][0][0]\n    Side data:\n      cpb: bitrate max/min/avg: 3000000/0/3000000 buffer size: 3000000 vbv_delay: N/A\nframe=    0 fps=0.0 q=0.0 size=       0KiB time=N/A bitrate=N/A speed=N/A elapsed=0:00:01.04    \nframe=    0 fps=0.0 q=0.0 size=       0KiB time=N/A bitrate=N/A speed=N/A elapsed=0:00:01.56    \nframe=    0 fps=0.0 q=0.0 size=       0KiB time=N/A bitrate=N/A speed=N/A elapsed=0:00:02.15    \nframe=   20 fps=7.3 q=39.0 size=       0KiB time=00:00:00.28 bitrate=   1.4kbits/s speed=0.103x elapsed=0:00:02.73    \nframe=   40 fps= 12 q=39.0 size=       0KiB time=00:00:00.68 bitrate=   0.6kbits/s speed=0.203x elapsed=0:00:03.34    \nframe=   61 fps= 15 q=40.0 size=     256KiB time=00:00:01.08 bitrate=1942.2kbits/s speed=0.269x elapsed=0:00:04.01    \nframe=   81 fps= 17 q=40.0 size=     256KiB time=00:00:01.56 bitrate=1344.6kbits/s speed=0.336x elapsed=0:00:04.64    \nframe=   96 fps= 18 q=40.0 size=     256KiB time=00:00:01.88 bitrate=1115.7kbits/s speed=0.358x elapsed=0:00:05.25    \nframe=  120 fps= 20 q=40.0 size=     512KiB time=00:00:02.36 bitrate=1777.4kbits/s speed=0.401x elapsed=0:00:05.88    \nframe=  133 fps= 21 q=40.0 size=     512KiB time=00:00:02.62 bitrate=1601.0kbits/s speed=0.405x elapsed=0:00:06.46    \nframe=  147 fps= 21 q=41.0 size=     768KiB time=00:00:02.82 bitrate=2231.1kbits/s speed=0.404x elapsed=0:00:06.98    \nframe=  163 fps= 22 q=40.0 size=     768KiB time=00:00:03.18 bitrate=1978.6kbits/s speed=0.42x elapsed=0:00:07.56    \nframe=  197 fps= 24 q=40.0 size=    1024KiB time=00:00:03.88 bitrate=2162.1kbits/s speed=0.479x elapsed=0:00:08.10    \nframe=  225 fps= 26 q=40.0 size=    1280KiB time=00:00:04.36 bitrate=2405.1kbits/s speed=0.504x elapsed=0:00:08.65    \n[mp4 @ 000001fcc4e3a980] Starting second pass: moving the moov atom to the beginning of the file\n[out#0/mp4 @ 000001fcc4e29bc0] video:1604KiB audio:0KiB subtitle:0KiB other streams:0KiB global headers:0KiB muxing overhead: 0.235120%\nframe=  250 fps= 27 q=-1.0 Lsize=    1608KiB time=00:00:04.96 bitrate=2656.2kbits/s speed=0.542x elapsed=0:00:09.15    \n[libx264 @ 000001fcc69b5980] frame I:2     Avg QP:38.71  size: 28682\n[libx264 @ 000001fcc69b5980] frame P:64    Avg QP:39.89  size: 10794\n[libx264 @ 000001fcc69b5980] frame B:184   Avg QP:42.30  size:  4859\n[libx264 @ 000001fcc69b5980] consecutive B-frames:  1.6%  0.8%  0.0% 97.6%\n[libx264 @ 000001fcc69b5980] mb I  I16..4: 66.4% 31.0%  2.6%\n[libx264 @ 000001fcc69b5980] mb P  I16..4:  4.9%  1.4%  0.0%  P16..4: 39.3%  2.3%  4.6%  0.0%  0.0%    skip:47.5%\n[libx264 @ 000001fcc69b5980] mb B  I16..4:  0.2%  0.1%  0.0%  B16..8: 46.2%  0.7%  0.0%  direct: 0.7%  skip:52.0%  L0:47.0% L1:52.8% BI: 0.3%\n[libx264 @ 000001fcc69b5980] 8x8 transform intra:25.8% inter:65.7%\n[libx264 @ 000001fcc69b5980] direct mvs  spatial:94.6% temporal:5.4%\n[libx264 @ 000001fcc69b5980] coded y,uvDC,uvAC intra: 16.4% 18.4% 2.3% inter: 3.8% 4.9% 0.0%\n[libx264 @ 000001fcc69b5980] i16 v,h,dc,p: 37% 25%  4% 34%\n[libx264 @ 000001fcc69b5980] i8 v,h,dc,ddl,ddr,vr,hd,vl,hu:  8%  3% 11% 12% 17% 14% 13% 10% 11%\n[libx264 @ 000001fcc69b5980] i4 v,h,dc,ddl,ddr,vr,hd,vl,hu:  8%  4%  8% 12% 14% 14% 12% 11% 17%\n[libx264 @ 000001fcc69b5980] i8c dc,h,v,p: 67% 25%  5%  3%\n[libx264 @ 000001fcc69b5980] Weighted P-Frames: Y:0.0% UV:0.0%\n[libx264 @ 000001fcc69b5980] ref P L0: 42.7%  8.6% 24.5% 11.6% 12.5%  0.1%\n[libx264 @ 000001fcc69b5980] ref B L0: 67.5% 20.3%  9.6%  2.6%\n[libx264 @ 000001fcc69b5980] ref B L1: 90.1%  9.9%\n[libx264 @ 000001fcc69b5980] kb/s:2627.57\n",
  "seconds": 9.463111162185669,
  "probe_out": {}
}